# xmcd
#
# Track frame offsets: 
#        150
#        37140
#        66195
#        91921
#        132347
#        154961
#        187998
#        210537
#        229585
#        253104
#        263280
#
# Disc length: 3817 seconds
#
# Revision: 0
# Processed by: cddbd v1.5.2PL0 Copyright (c) Steve Scherf et al.
# Submitted via: ExactAudioCopy v0.95b4
#
DISCID=920ee70b
DTITLE=Eric Clapton - 1998-11-20 - Pilgrim Tour - Berlin - CD1
DYEAR=1998
DGENRE=Blues
TTITLE0=My Father's Eyes
TTITLE1=Pilgrim
TTITLE2=One Chance
TTITLE3=River Of Tears
TTITLE4=Going Down Slow
TTITLE5=She's Gone
TTITLE6=Blues All Day Long
TTITLE7=Tears In Heaven
TTITLE8=Layla
TTITLE9=Intro to Change The World 
TTITLE10=Change The World
EXTD=
EXTT0=
EXTT1=
EXTT2=
EXTT3=
EXTT4=
EXTT5=
EXTT6=
EXTT7=
EXTT8=
EXTT9=
EXTT10=
PLAYORDER=
